<svg viewBox="0 0 122 36" xmlns="http://www.w3.org/2000/svg" fill="none">
  <rect width="100%" height="100%" fill="white"/>
  <svg viewBox="0 0 122 36" fill="none" xmlns="http://www.w3.org/2000/svg" >
    <!-- Icon -->
    <rect y="2" width="32" height="32" rx="8" fill="#2563eb"/>
    <path d="M16 9l5.5 6.5h-3.5v7h-4v-7h-3.5z" fill="#fff"/>
    <!-- Wordmark: Avenir Next Heavy -->
    <path d="M419 0H181V507H7V708H593V507H419Z" fill="#1e293b" transform="translate(41.0,27.1) scale(0.020000,-0.020000)"/>
    <path d="M632 265Q632 197 607.5 144.0Q583 91 541.5 54.5Q500 18 445.5 -1.0Q391 -20 331 -20Q272 -20 217.5 -1.0Q163 18 122.0 54.5Q81 91 56.5 144.0Q32 197 32 265Q32 332 56.5 384.5Q81 437 122.0 473.0Q163 509 217.5 527.5Q272 546 331 546Q391 546 445.5 527.5Q500 509 541.5 473.0Q583 437 607.5 384.5Q632 332 632 265ZM331 352Q293 352 269.5 326.0Q246 300 246 265Q246 228 270.0 202.0Q294 176 332 176Q370 176 394.0 202.0Q418 228 418 265Q418 300 393.5 326.0Q369 352 331 352Z" fill="#1e293b" transform="translate(53.0,27.1) scale(0.020000,-0.020000)"/>
    <path d="M423 -14Q384 -14 346.0 0.5Q308 15 284 41H282V-240H53V526H270V473H272Q301 506 342.0 523.0Q383 540 422 540Q481 540 526.0 516.0Q571 492 601.0 453.0Q631 414 646.5 365.0Q662 316 662 265Q662 213 646.5 163.0Q631 113 601.0 73.5Q571 34 526.5 10.0Q482 -14 423 -14ZM448 265Q448 300 426.0 326.0Q404 352 362 352Q321 352 296.5 326.0Q272 300 272 265Q272 228 296.5 202.0Q321 176 362 176Q404 176 426.0 201.5Q448 227 448 265Z" fill="#1e293b" transform="translate(66.3,27.1) scale(0.020000,-0.020000)"/>
    <path d="M288 523V436H352Q377 436 393.0 447.5Q409 459 409 483Q409 503 392.0 513.0Q375 523 347 523ZM288 283V187H359Q387 187 404.5 199.5Q422 212 422 236Q422 250 414.5 259.0Q407 268 396.0 273.5Q385 279 372.5 281.0Q360 283 349 283ZM529 368Q554 362 578.0 348.5Q602 335 621.0 314.5Q640 294 651.0 267.0Q662 240 662 207Q662 149 638.5 109.5Q615 70 576.5 45.5Q538 21 488.5 10.5Q439 0 387 0H66V708H357Q400 708 448.5 701.5Q497 695 538.0 675.5Q579 656 606.0 618.5Q633 581 633 520Q633 463 604.5 426.0Q576 389 529 371Z" fill="#2563eb" transform="translate(80.2,27.1) scale(0.020000,-0.020000)"/>
    <path d="M610 0H385V58H383Q363 29 323.5 7.5Q284 -14 233 -14Q177 -14 141.0 5.5Q105 25 83.5 56.5Q62 88 53.5 127.5Q45 167 45 206V526H277V248Q277 208 289.5 192.0Q302 176 327 176Q350 176 364.5 194.5Q379 213 379 248V526H610Z" fill="#2563eb" transform="translate(94.0,27.1) scale(0.020000,-0.020000)"/>
    <path d="M205 20 -8 526H248L326 249H330L399 526H646L430 -32Q411 -81 387.0 -119.5Q363 -158 331.0 -185.0Q299 -212 255.5 -226.0Q212 -240 154 -240Q136 -240 117.0 -238.5Q98 -237 80.5 -234.5Q63 -232 48.0 -229.5Q33 -227 23 -224L52 -34Q65 -39 83.5 -42.5Q102 -46 117 -46Q155 -46 173.5 -30.5Q192 -15 201 9Z" fill="#2563eb" transform="translate(107.3,27.1) scale(0.020000,-0.020000)"/>
  </svg>
</svg>